<svg width="700" height="700" viewBox="0 0 700 700" xmlns="http://www.w3.org/2000/svg">
  <g>
    <path fill="#8C1738" d="M345.121,106.878l22.143,91.245l84.9-40.041l-40.041,84.9l91.245,22.143l-91.245,22.143l40.041,84.9l-84.9-40.041
      l-22.143,91.246l-22.143-91.246l-84.9,40.041l40.041-84.9l-91.245-22.143l91.245-22.143l-40.041-84.9l84.9,40.041L345.121,106.878z
      M618.122,283.408l-115.204-27.969l50.592-107.257L446.253,198.774l-27.968-115.204l-73.163,302.571h-0.001l-73.162-302.571
      l-27.969,115.204l-107.257-50.592l50.592,107.257l-115.204,27.969l115.204,27.969l-50.592,107.257l107.257-50.592l27.969,115.204
      l73.163-302.571l73.163,302.571l27.969-115.204l107.257,50.592l-50.592-107.257L618.122,283.408z"/>
    <path fill="#8C1738" d="M588.235,459.633L528.19,418.602l-22.55,93.09l-59.29-245.179l92.062,22.305l-40.618,86.115l90.44-21.301z"/>
  </g>
</svg>